<svg xmlns="http://www.w3.org/2000/svg" viewBox="0 0 24 24">
  <path d="M16.015 14.378c0-.32-.135-.535-.39-.7-.256-.16-.6-.24-1.08-.24h-1.67v1.95h1.67c.465 0 .81-.09 1.065-.255.255-.165.405-.405.405-.755zM23.97 11.49L24 0H0v24h24V14.79h-.03V11.49zm-1.86-3.465L20.46 4.5h-2.37l-1.08 2.28L15.93 4.5H8.19L6.585 7.83l-1.53-3.33H2.67L.75 8.625 2.67 9.54H4.5l.57-1.365.495 1.365h3.33l.51-1.335.375 1.335H24l-1.89-2.415zm.015 7.98h-2.115l-1.77-2.22-1.815 2.22H9.36v-6.69h7.11L18.24 11.4l1.815-2.085h2.07l-2.82 3.33L22.125 16zm-8.325-1.26v-1.305h3.63v-1.215h-3.63v-1.17h3.78l1.62 1.875-1.695 1.815h-3.705zm-2.73-.87l-1.05-2.88-.51-1.41-.48 1.365-1.065 2.925h3.105z" fill="#006FCF"/>
</svg>
