<svg xmlns="http://www.w3.org/2000/svg" viewBox="0 0 120 50">
  <!-- Interac logo - simplified with brand colors -->
  <rect width="120" height="50" rx="6" fill="#FDB913"/>
  <!-- Interac wordmark -->
  <g fill="#231F20">
    <!-- I -->
    <rect x="12" y="15" width="4" height="20"/>
    <!-- n -->
    <path d="M20 21v14h4v-10c0-2 1-3 3-3s2.5 1 2.5 3v10h4V24c0-3.5-2-5.5-5-5.5-2 0-3.5 1-4.5 2.5V21h-4z"/>
    <!-- t -->
    <path d="M37 15h4v6h3v3h-3v7c0 1 .5 1.5 1.5 1.5.5 0 1-.1 1.5-.3v3c-.7.3-1.5.5-2.5.5-3 0-4.5-1.5-4.5-4.5V24h-2v-3h2v-6z"/>
    <!-- e -->
    <path d="M46 28c0-4.5 3-7.5 7-7.5 4.5 0 7 3 7 7.5v1h-10c.3 2 1.8 3.5 4 3.5 1.5 0 3-.5 4-1.5l2 2.5c-1.5 1.5-3.5 2.5-6.5 2.5-4.5 0-7.5-3-7.5-8zm4-.5h6.5c-.2-2-1.5-3.5-3.2-3.5s-3 1.5-3.3 3.5z"/>
    <!-- r -->
    <path d="M63 21v14h4v-8c0-2.5 1.5-3.5 3-3.5.5 0 1 .1 1.5.2V20.5c-.5-.1-1-.2-1.5-.2-2 0-3 1-3.5 2.5V21h-3.5z"/>
    <!-- a -->
    <path d="M74 28c0-4.5 3-7.5 7-7.5 2 0 3.5.8 4.5 2V21h4v14h-4v-1.5c-1 1.2-2.5 2-4.5 2-4 0-7-3-7-7.5zm4 0c0 2.5 1.5 4.5 4 4.5s4-2 4-4.5-1.5-4.5-4-4.5-4 2-4 4.5z"/>
    <!-- c -->
    <path d="M93 28c0-4.5 3-7.5 7-7.5 2.5 0 4.5 1 6 3l-3 2c-.8-1-2-1.8-3-1.8-2.5 0-4 2-4 4.3s1.5 4.3 4 4.3c1 0 2.2-.7 3-1.8l3 2c-1.5 2-3.5 3-6 3-4 0-7-3-7-7.5z"/>
  </g>
  <!-- Interac chevron mark -->
  <path d="M108 22l-3 3 3 3 3-3-3-3z" fill="#231F20"/>
</svg>
