<svg xmlns="http://www.w3.org/2000/svg" viewBox="0 0 70 50">
  <defs>
    <linearGradient id="jb" x1="0" y1="0" x2="0" y2="1">
      <stop offset="0%" stop-color="#007AE0"/>
      <stop offset="100%" stop-color="#0B4EA2"/>
    </linearGradient>
    <linearGradient id="jr" x1="0" y1="0" x2="0" y2="1">
      <stop offset="0%" stop-color="#E0274E"/>
      <stop offset="100%" stop-color="#CF0A2C"/>
    </linearGradient>
    <linearGradient id="jg" x1="0" y1="0" x2="0" y2="1">
      <stop offset="0%" stop-color="#6CBC47"/>
      <stop offset="100%" stop-color="#509E2F"/>
    </linearGradient>
  </defs>
  <rect x="2" y="4" width="18" height="42" rx="5" fill="url(#jb)"/>
  <rect x="22" y="4" width="18" height="42" rx="5" fill="url(#jr)"/>
  <rect x="42" y="4" width="18" height="42" rx="5" fill="url(#jg)"/>
  <!-- J -->
  <path d="M7.5 16h6v14c0 3.5-2 5.5-5 5.5-2 0-3.5-1-4.5-2.5l2-2c.5.8 1.5 1.5 2.5 1.5 1.5 0 2.5-1 2.5-3V19h-3.5v-3z" fill="#FFF"/>
  <!-- C -->
  <path d="M27 25c0-5 3.5-9 8-9 2 0 4 .8 5.5 2.5l-2 2.5c-1-1-2-1.8-3.5-1.8-3 0-5 2.5-5 5.8s2 5.8 5 5.8c1.5 0 2.5-.8 3.5-1.8l2 2.5c-1.5 1.7-3.5 2.5-5.5 2.5-4.5 0-8-4-8-9z" fill="#FFF"/>
  <!-- B -->
  <path d="M47.5 16h6c3 0 5.5 1.5 5.5 4.5 0 1.8-1 3-2.5 3.7 2 .6 3 2.2 3 4.3 0 3.2-2.5 5.5-6 5.5h-6V16zm3 7h3c1.8 0 3-.8 3-2.3s-1.2-2.2-3-2.2h-3v4.5zm0 8h3.5c2 0 3-1 3-2.7s-1.2-2.8-3.2-2.8h-3.3v5.5z" fill="#FFF"/>
</svg>
