<svg xmlns="http://www.w3.org/2000/svg" viewBox="0 0 131.39 86.9">
  <!-- Interlocking circles - Maestro uses different colors from Mastercard -->
  <circle cx="44.65" cy="44.65" r="44.65" fill="#EB001B"/>
  <circle cx="86.74" cy="44.65" r="44.65" fill="#00A1DF"/>
  <path d="M65.7 10.95a44.56 44.56 0 00-16.46 34.48c0 14.08 6.5 26.63 16.65 34.83a44.56 44.56 0 0016.46-34.48c0-14.27-6.68-26.96-17.08-35.18" fill="#7673C0"/>
  <!-- maestro wordmark -->
  <path d="M47.92 73.56v-3.24c0-1.24-.78-2.05-2.03-2.05-.64 0-1.34.21-1.82.91-.37-.57-.89-.91-1.66-.91-.54 0-1.07.15-1.49.75v-.62h-1.12v5.16h1.13v-2.86c0-.91.5-1.36 1.27-1.36.75 0 1.13.47 1.13 1.35v2.87h1.13v-2.86c0-.91.52-1.36 1.27-1.36.77 0 1.14.47 1.14 1.35v2.87zm16.6-5.16h-1.84v-1.57h-1.13v1.57h-1.05v1.02h1.05v2.35c0 1.2.47 1.91 1.81 1.91.49 0 1.06-.15 1.42-.4l-.32-.96c-.34.2-.71.29-.99.29-.56 0-.79-.35-.79-.86v-2.33h1.84zm9.49-.13c-.64 0-1.05.3-1.35.75v-.62h-1.12v5.16h1.13v-2.9c0-.85.37-1.33 1.1-1.33.24 0 .49.05.74.12l.33-1.08c-.26-.07-.54-.1-.83-.1zm-14.34.54c-.54-.36-1.27-.54-2.07-.54-1.29 0-2.12.62-2.12 1.62 0 .83.62 1.34 1.75 1.49l.52.08c.6.09.89.25.89.49 0 .37-.38.58-1.09.58-.72 0-1.24-.23-1.59-.49l-.53.86c.57.37 1.29.56 2.11.56 1.47 0 2.32-.69 2.32-1.65 0-.89-.67-1.36-1.77-1.52l-.52-.07c-.48-.06-.86-.16-.86-.46 0-.35.34-.56.91-.56.61 0 1.2.24 1.49.35zm29.79-.54c-.64 0-1.06.3-1.35.75v-.62h-1.12v5.16h1.13v-2.9c0-.85.37-1.33 1.1-1.33.24 0 .49.05.74.12l.33-1.08c-.26-.07-.55-.1-.83-.1zm-14.34 2.71c0 1.55 1.08 2.71 2.73 2.71.75 0 1.27-.17 1.82-.6l-.54-.91c-.43.31-.87.47-1.31.47-1.06 0-1.65-.72-1.65-1.67s.59-1.66 1.65-1.67c.44 0 .88.16 1.31.47l.54-.91c-.55-.43-1.07-.6-1.82-.6-1.65 0-2.73 1.16-2.73 2.71zm10.37 0v-2.58h-1.12v.62c-.35-.47-.89-.75-1.6-.75-1.41 0-2.52 1.1-2.52 2.71s1.11 2.71 2.52 2.71c.73 0 1.27-.28 1.6-.75v.62h1.12zm-4.1 0c0-.89.58-1.67 1.58-1.67.96 0 1.56.75 1.56 1.67s-.6 1.67-1.56 1.67c-1 0-1.58-.79-1.58-1.67zm-18.22 0c0 1.58 1.1 2.71 2.79 2.71.78 0 1.31-.17 1.88-.6l-.54-.86c-.42.29-.86.44-1.37.44-.75 0-1.38-.47-1.51-1.22h3.61v-.45c0-1.65-1.03-2.73-2.54-2.73-1.46 0-2.6 1.13-2.6 2.71zm2.58-1.7c.74 0 1.22.45 1.34 1.22h-2.78c.12-.7.6-1.22 1.44-1.22zm37.86 2.71v-4.69h-1.12v2.74c-.35-.47-.89-.75-1.6-.75-1.41 0-2.52 1.1-2.52 2.71s1.11 2.71 2.52 2.71c.73 0 1.27-.28 1.6-.75v.62h1.12zm-4.1 0c0-.89.58-1.67 1.58-1.67.96 0 1.56.75 1.56 1.67s-.6 1.67-1.56 1.67c-1 0-1.58-.79-1.58-1.67z" fill="#231F20"/>
</svg>
