<svg xmlns="http://www.w3.org/2000/svg" viewBox="0 0 80 56">
  <circle cx="25" cy="24" r="20" fill="#EB001B"/>
  <circle cx="55" cy="24" r="20" fill="#F79E1B"/>
  <path d="M40 8.5a20 20 0 0 0-7.3 15.5 20 20 0 0 0 7.3 15.5 20 20 0 0 0 7.3-15.5 20 20 0 0 0-7.3-15.5z" fill="#FF5F00"/>
  <path d="M21.6 50.8v-2.4c0-.9-.6-1.5-1.5-1.5-.5 0-1 .2-1.3.6-.3-.4-.7-.6-1.2-.6-.4 0-.8.1-1.1.5v-.5h-.8v3.9h.8v-2.2c0-.7.4-1 .9-1s.9.4.9 1v2.2h.8v-2.2c0-.7.4-1 .9-1s.9.4.9 1v2.2h.7zm11.9-3.9h-1.3v-1.2h-.8v1.2h-.7v.7h.7v1.8c0 .9.4 1.5 1.3 1.5.4 0 .8-.1 1.1-.3l-.2-.7c-.2.1-.5.2-.7.2-.4 0-.6-.3-.6-.7v-1.8h1.3v-.7h-.1zm6.8-.1c-.5 0-.8.2-1 .5v-.5h-.8v3.9h.8v-2.2c0-.7.3-1 .8-1 .2 0 .3 0 .5.1l.2-.8c-.2 0-.4-.1-.5 0zm-10.3.4c-.4-.3-1-.4-1.6-.4-1 0-1.6.5-1.6 1.2 0 .6.5 1 1.3 1.1l.4.1c.4.1.7.2.7.5 0 .3-.3.5-.9.5s-1.1-.2-1.3-.4l-.4.6c.5.3 1 .5 1.7.5 1.1 0 1.8-.5 1.8-1.3 0-.7-.5-1-1.3-1.1l-.4-.1c-.4-.1-.6-.2-.6-.4 0-.3.3-.5.8-.5.5 0 1 .2 1.2.3l.2-.6zm21.5-.4c-.5 0-.8.2-1 .5v-.5h-.8v3.9h.8v-2.2c0-.7.3-1 .8-1 .2 0 .3 0 .5.1l.2-.8c-.2 0-.3-.1-.5 0zm-10.2 2c0 1.2.8 2 2.1 2 .6 0 1-.1 1.4-.4l-.4-.7c-.3.2-.7.3-1 .3-.8 0-1.3-.5-1.3-1.3s.5-1.3 1.3-1.3c.3 0 .7.1 1 .3l.4-.7c-.4-.3-.8-.4-1.4-.4-1.3.1-2.1.9-2.1 2.1zm7.5 0v-2h-.8v.5c-.3-.4-.7-.6-1.2-.6-1.1 0-2 .8-2 2s.9 2 2 2c.6 0 1-.2 1.2-.6v.5h.8v-1.9zm-3.2 0c0-.7.5-1.3 1.2-1.3s1.2.6 1.2 1.3-.5 1.3-1.2 1.3-1.2-.6-1.2-1.3zm-10.4-2c-1.1 0-2 .8-2 2s.9 2 2.1 2c.6 0 1.1-.2 1.6-.5l-.4-.6c-.3.2-.7.4-1.1.4-.5 0-1-.3-1.1-.9h2.8v-.3c0-1.3-.8-2.1-1.9-2.1zm0 .7c.5 0 .9.3 1 .9h-2.1c.1-.5.5-.9 1.1-.9zm21.7 1.4v-3.6h-.8v2.1c-.3-.4-.7-.6-1.2-.6-1.1 0-2 .8-2 2s.9 2 2 2c.6 0 1-.2 1.2-.6v.5h.8v-1.8zm-3.2 0c0-.7.5-1.3 1.2-1.3s1.2.6 1.2 1.3-.5 1.3-1.2 1.3-1.2-.6-1.2-1.3z" fill="#231F20"/>
</svg>
