<svg xmlns="http://www.w3.org/2000/svg" viewBox="0 0 80 50">
  <!-- Three overlapping parallelogram shapes -->
  <path d="M13 2h20c2 0 3 1.5 2.5 3.5L28 44.5c-.5 2-2.5 3.5-4.5 3.5H5c-2 0-2.5-1.5-2-3.5L10.5 5.5C11 3.5 11 2 13 2z" fill="#E21836"/>
  <path d="M29 2h22c2 0 3 1.5 2.5 3.5L46 44.5c-.5 2-2.5 3.5-4.5 3.5H21c-2 0-2.5-1.5-2-3.5L26.5 5.5C27 3.5 27 2 29 2z" fill="#00447C"/>
  <path d="M47 2h20c2 0 3 1.5 2.5 3.5L62 44.5c-.5 2-2.5 3.5-4.5 3.5H39c-2 0-2.5-1.5-2-3.5L44.5 5.5C45 3.5 45 2 47 2z" fill="#007B84"/>
  <!-- "UnionPay" wordmark as paths -->
  <!-- U -->
  <path d="M15 16v12c0 3 1.5 4.5 4 4.5s4-1.5 4-4.5V16h-2.5v12c0 1.5-.5 2.5-1.5 2.5s-1.5-1-1.5-2.5V16H15z" fill="#FFF"/>
  <!-- P -->
  <path d="M37 16v16h2.5v-5h2.5c3 0 4.5-2 4.5-5.5S45 16 42 16h-5zm2.5 2.5h2c1.5 0 2.5.8 2.5 3s-1 3-2.5 3h-2v-6z" fill="#FFF"/>
  <!-- Simplified CUP symbol -->
  <path d="M54 25c0-3 2-5.5 5-5.5s5 2.5 5 5.5-2 5.5-5 5.5-5-2.5-5-5.5z" fill="#FFF" opacity="0.8"/>
</svg>
