<svg xmlns="http://www.w3.org/2000/svg" viewBox="0 0 120 40">
  <path d="M44.5 3.5L35 36.5h-9.2L16 9.6c-.5-2.1-1-2.8-2.6-3.7C11 4.8 7.3 3.8 4 3.2l.2-1h15.7c2 0 3.8 1.3 4.2 3.6l3.9 20.7L37.5 3.5h7zM82.5 25c0-8.4-11.7-8.9-11.6-12.6 0-1.1 1.1-2.3 3.5-2.7 1.2-.1 4.5-.3 8.2 1.4l1.5-6.8C82.3 3.6 80 3 77 3c-6.6 0-11.2 3.5-11.3 8.5 0 3.7 3.3 5.8 5.8 7 2.6 1.3 3.5 2.1 3.5 3.2 0 1.7-2.1 2.5-4 2.5-3.4.1-5.3-.9-6.9-1.6l-1.2 5.7c1.6.7 4.4 1.3 7.4 1.4 7 0 11.6-3.5 11.6-8.8l.6.1zM98.3 36.5h6.4L99 3.5h-7.4c-1.7 0-3.1 1-3.7 2.4L77.4 36.5h7l1.4-3.8h8.5l.8 3.8h.2zm-7.4-9l3.5-9.6 2 9.6h-5.5zM52.8 3.5L47.4 36.5h-6.7l5.4-33h6.7z" fill="#1A1F71"/>
</svg>
