<svg xmlns="http://www.w3.org/2000/svg" viewBox="0 0 400 130">
  <g fill="#1A1F71">
    <!-- V -->
    <polygon points="0,10 50,120 60,120 110,10 88,10 55,95 22,10"/>
    <!-- I -->
    <rect x="120" y="10" width="22" height="110"/>
    <!-- S -->
    <path d="M170 42c0-20 15-34 42-34 18 0 30 6 38 14l-14 16c-6-6-14-10-24-10-12 0-19 5-19 13 0 9 7 13 22 18 20 7 32 16 32 35 0 22-17 38-44 38-18 0-33-7-42-18l15-15c7 8 17 14 28 14 13 0 21-6 21-16 0-10-7-14-23-20-20-7-32-15-32-35z"/>
    <!-- A -->
    <path d="M268 120h-24l8-24h56l8 24h-24l-12-36zm12-79l20 60h-40l20-60z" fill-rule="evenodd"/>
  </g>
</svg>
