<svg xmlns="http://www.w3.org/2000/svg" viewBox="0 0 1024 645" width="1024" height="645">
  <g fill="none" stroke="white" stroke-width="1" stroke-linecap="round">
    <!-- Topographic contour lines -->
    <path d="M200,500 Q280,460 350,480 Q420,500 480,450 Q540,400 620,420 Q700,440 750,390" opacity="0.12"/>
    <path d="M180,470 Q260,420 340,450 Q410,480 460,420 Q520,360 610,390 Q690,420 760,360" opacity="0.10"/>
    <path d="M160,440 Q240,380 320,410 Q400,440 450,380 Q510,320 600,350 Q680,380 770,330" opacity="0.09"/>
    <path d="M150,400 Q230,340 310,370 Q380,400 440,340 Q500,280 580,310 Q660,340 780,300" opacity="0.08"/>
    <path d="M140,360 Q220,300 300,330 Q370,360 430,300 Q490,240 570,270 Q650,300 790,260" opacity="0.07"/>
    <path d="M130,320 Q210,260 290,290 Q360,320 420,260 Q480,200 560,230 Q640,260 800,220" opacity="0.06"/>
    <!-- Second contour cluster -->
    <path d="M500,280 Q560,240 630,260 Q700,280 760,230 Q820,180 890,210 Q950,240 1024,200" opacity="0.10"/>
    <path d="M480,250 Q550,200 620,230 Q690,260 750,200 Q810,150 880,180 Q940,210 1024,170" opacity="0.08"/>
    <path d="M460,220 Q540,170 610,200 Q680,230 740,170 Q800,120 870,150 Q930,180 1024,140" opacity="0.06"/>
    <!-- Lower cluster -->
    <path d="M0,350 Q80,310 160,340 Q240,370 300,310 Q360,250 440,280" opacity="0.08"/>
    <path d="M0,310 Q70,270 150,300 Q230,330 290,270 Q350,210 430,240" opacity="0.06"/>
    <path d="M0,270 Q60,230 140,260 Q220,290 280,230 Q340,170 420,200" opacity="0.05"/>
    <!-- Scattered elevation marks -->
    <circle cx="400" cy="340" r="3" fill="white" opacity="0.08"/>
    <circle cx="680" cy="260" r="3" fill="white" opacity="0.08"/>
    <circle cx="250" cy="380" r="3" fill="white" opacity="0.06"/>
  </g>
</svg>
