<svg xmlns="http://www.w3.org/2000/svg" viewBox="0 0 1024 645" width="1024" height="645">
  <g fill="none" stroke="white" stroke-width="2" stroke-linecap="round">
    <path d="M-50,580 C150,540 300,620 500,560 C700,500 850,580 1074,520" opacity="0.12"/>
    <path d="M-50,520 C180,470 320,560 520,490 C720,420 870,510 1074,450" opacity="0.10"/>
    <path d="M-50,450 C160,400 340,490 540,420 C740,350 880,440 1074,380" opacity="0.08"/>
    <path d="M-50,380 C140,330 360,420 560,350 C760,280 890,370 1074,310" opacity="0.07"/>
    <path d="M-50,310 C170,260 330,350 530,280 C730,210 860,300 1074,240" opacity="0.06"/>
    <path d="M-50,240 C150,190 350,280 550,210 C750,140 870,230 1074,170" opacity="0.05"/>
    <path d="M-50,170 C180,120 310,210 510,140 C710,70 880,160 1074,100" opacity="0.04"/>
  </g>
</svg>
