<svg xmlns="http://www.w3.org/2000/svg" viewBox="0 0 1024 645" width="1024" height="645">
  <defs>
    <linearGradient id="tg" x1="0" y1="0" x2="1" y2="0.8">
      <stop offset="0%" stop-color="white" stop-opacity="0.55"/>
      <stop offset="100%" stop-color="white" stop-opacity="0.08"/>
    </linearGradient>
  </defs>
  <g fill="none" stroke="url(#tg)" stroke-linecap="round">
    <!-- Dense contour cluster — upper right -->
    <path d="M500,280 Q570,230 650,260 Q730,290 790,230 Q850,170 920,210 Q980,250 1060,200" stroke-width="1.8" opacity="0.55"/>
    <path d="M480,250 Q560,195 640,225 Q720,255 775,195 Q835,135 910,175 Q975,215 1060,165" stroke-width="1.5" opacity="0.48"/>
    <path d="M460,220 Q550,160 635,195 Q715,225 765,160 Q825,100 900,140 Q970,180 1060,130" stroke-width="1.3" opacity="0.4"/>
    <path d="M445,190 Q540,130 625,165 Q705,200 755,130 Q815,70 895,110 Q965,150 1060,100" stroke-width="1.1" opacity="0.32"/>
    <path d="M430,160 Q530,100 615,135 Q695,170 745,100 Q805,40 890,80 Q960,120 1060,70" stroke-width="0.9" opacity="0.24"/>
    <!-- Dense contour cluster — center left -->
    <path d="M0,420 Q90,370 180,400 Q270,430 340,370 Q400,310 480,340 Q560,370 630,320" stroke-width="1.8" opacity="0.5"/>
    <path d="M0,385 Q80,335 170,365 Q255,395 325,335 Q385,275 465,305 Q545,335 620,285" stroke-width="1.5" opacity="0.42"/>
    <path d="M0,350 Q70,300 160,330 Q240,360 310,300 Q370,240 450,270 Q530,300 610,250" stroke-width="1.3" opacity="0.35"/>
    <path d="M0,315 Q60,265 150,295 Q225,325 295,265 Q355,205 435,235 Q515,265 600,215" stroke-width="1.1" opacity="0.28"/>
    <path d="M0,280 Q50,230 140,260 Q210,290 280,230 Q340,170 420,200 Q500,230 590,180" stroke-width="0.9" opacity="0.2"/>
    <!-- Lower scattered contours -->
    <path d="M200,540 Q300,500 400,530 Q500,560 600,510 Q700,460 800,500 Q900,540 1024,490" stroke-width="1.2" opacity="0.32"/>
    <path d="M180,510 Q290,465 390,500 Q490,535 590,480 Q690,425 790,465 Q890,505 1024,455" stroke-width="1" opacity="0.25"/>
    <path d="M160,480 Q280,435 380,470 Q480,505 580,450 Q680,395 780,435 Q880,475 1024,425" stroke-width="0.8" opacity="0.18"/>
    <!-- Upper light contours -->
    <path d="M0,120 Q120,80 220,110 Q320,140 420,90 Q520,40 620,80 Q720,120 820,70" stroke-width="1" opacity="0.22"/>
    <path d="M0,85 Q110,45 210,75 Q310,105 410,55 Q510,5 610,45 Q710,85 810,35" stroke-width="0.8" opacity="0.15"/>
    <!-- Elevation dots -->
    <circle cx="400" cy="340" r="4" fill="white" opacity="0.35"/>
    <circle cx="680" cy="240" r="4" fill="white" opacity="0.35"/>
    <circle cx="250" cy="380" r="3.5" fill="white" opacity="0.28"/>
    <circle cx="820" cy="190" r="3" fill="white" opacity="0.22"/>
    <circle cx="550" cy="490" r="3" fill="white" opacity="0.22"/>
  </g>
</svg>
