<svg xmlns="http://www.w3.org/2000/svg" viewBox="0 0 1024 645" width="1024" height="645">
  <defs>
    <linearGradient id="vg" x1="0" y1="0" x2="0.8" y2="1">
      <stop offset="0%" stop-color="white" stop-opacity="0.5"/>
      <stop offset="100%" stop-color="white" stop-opacity="0.1"/>
    </linearGradient>
    <radialGradient id="vglow" cx="65%" cy="40%" r="45%">
      <stop offset="0%" stop-color="white" stop-opacity="0.12"/>
      <stop offset="100%" stop-color="white" stop-opacity="0"/>
    </radialGradient>
  </defs>
  <g fill="none" stroke="url(#vg)" stroke-width="1" stroke-linejoin="round">
    <!-- Row 1 -->
    <polygon points="0,0 120,30 90,150 0,120" opacity="0.38"/>
    <polygon points="120,30 280,0 310,80 200,140 90,150" opacity="0.35"/>
    <polygon points="280,0 450,20 420,130 310,80" opacity="0.32"/>
    <polygon points="450,20 620,0 650,100 530,150 420,130" opacity="0.3"/>
    <polygon points="620,0 800,30 780,120 650,100" opacity="0.35"/>
    <polygon points="800,30 1024,0 1024,110 870,140 780,120" opacity="0.32"/>
    <!-- Row 2 -->
    <polygon points="0,120 90,150 60,290 0,260" opacity="0.35"/>
    <polygon points="90,150 200,140 240,280 150,310 60,290" opacity="0.32"/>
    <polygon points="200,140 310,80 380,200 330,300 240,280" opacity="0.38"/>
    <polygon points="310,80 420,130 450,230 380,200" opacity="0.3"/>
    <polygon points="420,130 530,150 560,260 450,230" opacity="0.35"/>
    <polygon points="530,150 650,100 700,230 620,280 560,260" opacity="0.32"/>
    <polygon points="650,100 780,120 810,250 700,230" opacity="0.28"/>
    <polygon points="780,120 870,140 920,270 810,250" opacity="0.35"/>
    <polygon points="870,140 1024,110 1024,280 920,270" opacity="0.3"/>
    <!-- Row 3 -->
    <polygon points="0,260 60,290 40,430 0,400" opacity="0.3"/>
    <polygon points="60,290 150,310 180,420 100,450 40,430" opacity="0.35"/>
    <polygon points="150,310 240,280 290,400 220,440 180,420" opacity="0.32"/>
    <polygon points="240,280 330,300 370,420 290,400" opacity="0.28"/>
    <polygon points="330,300 450,230 490,370 430,430 370,420" opacity="0.35"/>
    <polygon points="450,230 560,260 580,380 490,370" opacity="0.3"/>
    <polygon points="560,260 620,280 660,400 580,380" opacity="0.32"/>
    <polygon points="620,280 700,230 740,370 660,400" opacity="0.28"/>
    <polygon points="700,230 810,250 840,390 740,370" opacity="0.35"/>
    <polygon points="810,250 920,270 950,410 840,390" opacity="0.32"/>
    <polygon points="920,270 1024,280 1024,420 950,410" opacity="0.3"/>
    <!-- Row 4 -->
    <polygon points="0,400 40,430 20,560 0,540" opacity="0.28"/>
    <polygon points="40,430 100,450 120,570 60,590 20,560" opacity="0.32"/>
    <polygon points="100,450 220,440 250,580 160,600 120,570" opacity="0.3"/>
    <polygon points="220,440 370,420 380,560 250,580" opacity="0.35"/>
    <polygon points="370,420 490,370 520,530 440,570 380,560" opacity="0.28"/>
    <polygon points="490,370 580,380 600,520 520,530" opacity="0.32"/>
    <polygon points="580,380 660,400 680,540 600,520" opacity="0.35"/>
    <polygon points="660,400 740,370 770,520 680,540" opacity="0.3"/>
    <polygon points="740,370 840,390 860,530 770,520" opacity="0.28"/>
    <polygon points="840,390 950,410 970,540 860,530" opacity="0.32"/>
    <polygon points="950,410 1024,420 1024,550 970,540" opacity="0.35"/>
    <!-- Row 5 (bottom) -->
    <polygon points="0,540 20,560 0,645" opacity="0.25"/>
    <polygon points="20,560 60,590 50,645 0,645" opacity="0.3"/>
    <polygon points="60,590 160,600 180,645 50,645" opacity="0.28"/>
    <polygon points="160,600 250,580 290,645 180,645" opacity="0.32"/>
    <polygon points="250,580 380,560 410,645 290,645" opacity="0.3"/>
    <polygon points="380,560 520,530 550,645 410,645" opacity="0.25"/>
    <polygon points="520,530 600,520 630,645 550,645" opacity="0.3"/>
    <polygon points="600,520 680,540 710,645 630,645" opacity="0.28"/>
    <polygon points="680,540 770,520 800,645 710,645" opacity="0.32"/>
    <polygon points="770,520 860,530 890,645 800,645" opacity="0.3"/>
    <polygon points="860,530 970,540 980,645 890,645" opacity="0.28"/>
    <polygon points="970,540 1024,550 1024,645 980,645" opacity="0.32"/>
  </g>
  <!-- Glow overlay -->
  <rect width="1024" height="645" fill="url(#vglow)"/>
  <!-- Node dots at cell centers -->
  <g fill="white">
    <circle cx="130" cy="80" r="2.5" opacity="0.35"/>
    <circle cx="360" cy="50" r="2.5" opacity="0.3"/>
    <circle cx="540" cy="75" r="2.5" opacity="0.25"/>
    <circle cx="720" cy="60" r="2.5" opacity="0.3"/>
    <circle cx="920" cy="70" r="2.5" opacity="0.25"/>
    <circle cx="155" cy="220" r="2.5" opacity="0.3"/>
    <circle cx="350" cy="190" r="2.5" opacity="0.35"/>
    <circle cx="580" cy="210" r="2.5" opacity="0.25"/>
    <circle cx="760" cy="185" r="2.5" opacity="0.3"/>
    <circle cx="400" cy="370" r="2.5" opacity="0.3"/>
    <circle cx="630" cy="340" r="2.5" opacity="0.35"/>
    <circle cx="850" cy="350" r="2.5" opacity="0.25"/>
  </g>
</svg>
