<svg xmlns="http://www.w3.org/2000/svg" viewBox="0 0 1024 645" width="1024" height="645">
  <defs>
    <linearGradient id="cg" x1="0" y1="0" x2="1" y2="0.6">
      <stop offset="0%" stop-color="white" stop-opacity="0.5"/>
      <stop offset="100%" stop-color="white" stop-opacity="0.12"/>
    </linearGradient>
  </defs>
  <g stroke="url(#cg)" fill="none" stroke-linecap="round" stroke-linejoin="round">
    <!-- Horizontal traces -->
    <line x1="0" y1="80" x2="180" y2="80" stroke-width="1.5" opacity="0.4"/>
    <line x1="230" y1="80" x2="480" y2="80" stroke-width="1.2" opacity="0.3"/>
    <line x1="540" y1="80" x2="720" y2="80" stroke-width="1" opacity="0.25"/>
    <line x1="0" y1="160" x2="140" y2="160" stroke-width="1.5" opacity="0.35"/>
    <line x1="280" y1="160" x2="580" y2="160" stroke-width="1.2" opacity="0.25"/>
    <line x1="640" y1="160" x2="900" y2="160" stroke-width="1" opacity="0.2"/>
    <line x1="0" y1="250" x2="320" y2="250" stroke-width="1.5" opacity="0.35"/>
    <line x1="380" y1="250" x2="680" y2="250" stroke-width="1.2" opacity="0.4"/>
    <line x1="0" y1="340" x2="230" y2="340" stroke-width="1.2" opacity="0.3"/>
    <line x1="480" y1="340" x2="780" y2="340" stroke-width="1.5" opacity="0.35"/>
    <line x1="0" y1="430" x2="180" y2="430" stroke-width="1" opacity="0.25"/>
    <line x1="360" y1="430" x2="640" y2="430" stroke-width="1.2" opacity="0.35"/>
    <line x1="0" y1="520" x2="380" y2="520" stroke-width="1.5" opacity="0.3"/>
    <line x1="580" y1="520" x2="1024" y2="520" stroke-width="1" opacity="0.2"/>
    <!-- Vertical traces -->
    <line x1="180" y1="80" x2="180" y2="250" stroke-width="1.3" opacity="0.35"/>
    <line x1="480" y1="30" x2="480" y2="160" stroke-width="1.2" opacity="0.3"/>
    <line x1="320" y1="250" x2="320" y2="430" stroke-width="1" opacity="0.25"/>
    <line x1="680" y1="160" x2="680" y2="340" stroke-width="1.3" opacity="0.35"/>
    <line x1="780" y1="340" x2="780" y2="520" stroke-width="1.2" opacity="0.3"/>
    <line x1="140" y1="160" x2="140" y2="340" stroke-width="1" opacity="0.25"/>
    <line x1="580" y1="340" x2="580" y2="520" stroke-width="1.2" opacity="0.3"/>
    <line x1="900" y1="80" x2="900" y2="280" stroke-width="1" opacity="0.2"/>
    <!-- Right-angle bends -->
    <polyline points="180,250 280,250 280,160" stroke-width="1.2" opacity="0.35"/>
    <polyline points="480,160 480,250 380,250" stroke-width="1" opacity="0.3"/>
    <polyline points="680,340 680,430 580,430" stroke-width="1.2" opacity="0.25"/>
    <polyline points="780,520 900,520 900,430" stroke-width="1" opacity="0.3"/>
    <polyline points="140,340 230,340 230,430" stroke-width="1.2" opacity="0.25"/>
    <polyline points="320,430 320,520 380,520" stroke-width="1" opacity="0.3"/>
    <polyline points="720,80 720,160 640,160" stroke-width="1.2" opacity="0.25"/>
    <!-- IC pads (larger, more visible) -->
    <rect x="173" y="73" width="14" height="14" rx="2" fill="white" opacity="0.4"/>
    <rect x="473" y="73" width="14" height="14" rx="2" fill="white" opacity="0.32"/>
    <rect x="313" y="243" width="14" height="14" rx="2" fill="white" opacity="0.35"/>
    <rect x="673" y="243" width="14" height="14" rx="2" fill="white" opacity="0.4"/>
    <rect x="773" y="333" width="14" height="14" rx="2" fill="white" opacity="0.32"/>
    <rect x="573" y="513" width="14" height="14" rx="2" fill="white" opacity="0.25"/>
    <rect x="893" y="153" width="14" height="14" rx="2" fill="white" opacity="0.22"/>
    <rect x="133" y="153" width="14" height="14" rx="2" fill="white" opacity="0.3"/>
    <!-- Vias (dots) -->
    <circle cx="230" cy="80" r="4" fill="white" opacity="0.4"/>
    <circle cx="280" cy="160" r="4" fill="white" opacity="0.32"/>
    <circle cx="380" cy="250" r="4" fill="white" opacity="0.35"/>
    <circle cx="580" cy="160" r="4" fill="white" opacity="0.25"/>
    <circle cx="480" cy="340" r="4" fill="white" opacity="0.3"/>
    <circle cx="780" cy="430" r="4" fill="white" opacity="0.25"/>
    <circle cx="640" cy="430" r="4" fill="white" opacity="0.32"/>
    <circle cx="180" cy="430" r="4" fill="white" opacity="0.22"/>
    <circle cx="380" cy="520" r="4" fill="white" opacity="0.3"/>
  </g>
</svg>
